<mxfile host="app.diagrams.net" agent="Mozilla/5.0 (Macintosh; Intel Mac OS X 10_15_7) AppleWebKit/537.36 (KHTML, like Gecko) Chrome/134.0.0.0 Safari/537.36" version="27.0.6">
  <diagram id="R2lEEEUBdFMjLlhIrx00" name="Page-1">
    <mxGraphModel dx="15" dy="741" grid="1" gridSize="10" guides="1" tooltips="1" connect="1" arrows="1" fold="1" page="1" pageScale="1" pageWidth="850" pageHeight="1100" math="0" shadow="0" extFonts="Permanent Marker^https://fonts.googleapis.com/css?family=Permanent+Marker">
      <root>
        <mxCell id="0" />
        <mxCell id="1" parent="0" />
        <mxCell id="AAbZ2Wf6AEYFuADZsL_J-1" value="$100" style="ellipse;whiteSpace=wrap;html=1;align=center;" vertex="1" parent="1">
          <mxGeometry x="1510" y="160" width="100" height="40" as="geometry" />
        </mxCell>
        <mxCell id="AAbZ2Wf6AEYFuADZsL_J-2" value="$50" style="ellipse;whiteSpace=wrap;html=1;align=center;" vertex="1" parent="1">
          <mxGeometry x="1560" y="200" width="100" height="40" as="geometry" />
        </mxCell>
        <mxCell id="AAbZ2Wf6AEYFuADZsL_J-3" value="$20" style="ellipse;whiteSpace=wrap;html=1;align=center;" vertex="1" parent="1">
          <mxGeometry x="1450" y="200" width="100" height="40" as="geometry" />
        </mxCell>
        <mxCell id="AAbZ2Wf6AEYFuADZsL_J-4" value="$10" style="ellipse;whiteSpace=wrap;html=1;align=center;" vertex="1" parent="1">
          <mxGeometry x="1560" y="300" width="100" height="40" as="geometry" />
        </mxCell>
        <mxCell id="AAbZ2Wf6AEYFuADZsL_J-5" value="$5" style="ellipse;whiteSpace=wrap;html=1;align=center;" vertex="1" parent="1">
          <mxGeometry x="1545" y="250" width="100" height="40" as="geometry" />
        </mxCell>
        <mxCell id="AAbZ2Wf6AEYFuADZsL_J-6" value="$2" style="ellipse;whiteSpace=wrap;html=1;align=center;" vertex="1" parent="1">
          <mxGeometry x="1450" y="300" width="100" height="40" as="geometry" />
        </mxCell>
        <mxCell id="AAbZ2Wf6AEYFuADZsL_J-7" value="$1" style="ellipse;whiteSpace=wrap;html=1;align=center;" vertex="1" parent="1">
          <mxGeometry x="1510" y="340" width="100" height="40" as="geometry" />
        </mxCell>
        <mxCell id="AAbZ2Wf6AEYFuADZsL_J-8" value="entry_type" style="ellipse;whiteSpace=wrap;html=1;align=center;" vertex="1" parent="1">
          <mxGeometry x="1340" y="200" width="100" height="40" as="geometry" />
        </mxCell>
        <mxCell id="AAbZ2Wf6AEYFuADZsL_J-9" value="&lt;span style=&quot;border-bottom: 1px dotted&quot;&gt;entry_datetime&lt;/span&gt;" style="ellipse;whiteSpace=wrap;html=1;align=center;" vertex="1" parent="1">
          <mxGeometry x="1390" y="160" width="100" height="40" as="geometry" />
        </mxCell>
        <mxCell id="AAbZ2Wf6AEYFuADZsL_J-10" value="" style="endArrow=none;html=1;rounded=0;exitX=0.5;exitY=1;exitDx=0;exitDy=0;entryX=0.5;entryY=0;entryDx=0;entryDy=0;" edge="1" parent="1" source="AAbZ2Wf6AEYFuADZsL_J-8" target="AAbZ2Wf6AEYFuADZsL_J-15">
          <mxGeometry relative="1" as="geometry">
            <mxPoint x="1470" y="310" as="sourcePoint" />
            <mxPoint x="1440" y="270" as="targetPoint" />
          </mxGeometry>
        </mxCell>
        <mxCell id="AAbZ2Wf6AEYFuADZsL_J-11" value="" style="endArrow=none;html=1;rounded=0;exitX=0.5;exitY=1;exitDx=0;exitDy=0;entryX=0.5;entryY=0;entryDx=0;entryDy=0;" edge="1" parent="1" source="AAbZ2Wf6AEYFuADZsL_J-9" target="AAbZ2Wf6AEYFuADZsL_J-15">
          <mxGeometry relative="1" as="geometry">
            <mxPoint x="1470" y="310" as="sourcePoint" />
            <mxPoint x="1490" y="250" as="targetPoint" />
          </mxGeometry>
        </mxCell>
        <mxCell id="AAbZ2Wf6AEYFuADZsL_J-12" value="" style="endArrow=none;html=1;rounded=0;exitX=0.5;exitY=1;exitDx=0;exitDy=0;entryX=0.5;entryY=0;entryDx=0;entryDy=0;" edge="1" parent="1" source="AAbZ2Wf6AEYFuADZsL_J-1" target="AAbZ2Wf6AEYFuADZsL_J-15">
          <mxGeometry relative="1" as="geometry">
            <mxPoint x="1470" y="310" as="sourcePoint" />
            <mxPoint x="1490" y="250" as="targetPoint" />
          </mxGeometry>
        </mxCell>
        <mxCell id="AAbZ2Wf6AEYFuADZsL_J-13" value="" style="endArrow=none;html=1;rounded=0;exitX=0.5;exitY=1;exitDx=0;exitDy=0;entryX=0.5;entryY=0;entryDx=0;entryDy=0;" edge="1" parent="1" source="AAbZ2Wf6AEYFuADZsL_J-3" target="AAbZ2Wf6AEYFuADZsL_J-15">
          <mxGeometry relative="1" as="geometry">
            <mxPoint x="1470" y="310" as="sourcePoint" />
            <mxPoint x="1490" y="250" as="targetPoint" />
          </mxGeometry>
        </mxCell>
        <mxCell id="AAbZ2Wf6AEYFuADZsL_J-14" value="" style="endArrow=none;html=1;rounded=0;exitX=0;exitY=0.5;exitDx=0;exitDy=0;entryX=0.5;entryY=0;entryDx=0;entryDy=0;entryPerimeter=0;" edge="1" parent="1" source="AAbZ2Wf6AEYFuADZsL_J-2" target="AAbZ2Wf6AEYFuADZsL_J-15">
          <mxGeometry relative="1" as="geometry">
            <mxPoint x="1470" y="310" as="sourcePoint" />
            <mxPoint x="1490" y="250" as="targetPoint" />
          </mxGeometry>
        </mxCell>
        <mxCell id="AAbZ2Wf6AEYFuADZsL_J-15" value="usd_entry" style="shape=ext;margin=3;double=1;whiteSpace=wrap;html=1;align=center;" vertex="1" parent="1">
          <mxGeometry x="1440" y="250" width="100" height="40" as="geometry" />
        </mxCell>
        <mxCell id="AAbZ2Wf6AEYFuADZsL_J-16" value="" style="endArrow=none;html=1;rounded=0;entryX=0;entryY=0.5;entryDx=0;entryDy=0;" edge="1" parent="1" target="AAbZ2Wf6AEYFuADZsL_J-5">
          <mxGeometry relative="1" as="geometry">
            <mxPoint x="1540" y="270" as="sourcePoint" />
            <mxPoint x="1590" y="300" as="targetPoint" />
          </mxGeometry>
        </mxCell>
        <mxCell id="AAbZ2Wf6AEYFuADZsL_J-17" value="" style="endArrow=none;html=1;rounded=0;entryX=0.012;entryY=0.401;entryDx=0;entryDy=0;entryPerimeter=0;exitX=1;exitY=0.5;exitDx=0;exitDy=0;" edge="1" parent="1" source="AAbZ2Wf6AEYFuADZsL_J-15" target="AAbZ2Wf6AEYFuADZsL_J-4">
          <mxGeometry relative="1" as="geometry">
            <mxPoint x="1430" y="300" as="sourcePoint" />
            <mxPoint x="1590" y="300" as="targetPoint" />
          </mxGeometry>
        </mxCell>
        <mxCell id="AAbZ2Wf6AEYFuADZsL_J-18" value="" style="endArrow=none;html=1;rounded=0;entryX=0.5;entryY=0;entryDx=0;entryDy=0;exitX=1;exitY=0.5;exitDx=0;exitDy=0;" edge="1" parent="1" source="AAbZ2Wf6AEYFuADZsL_J-15" target="AAbZ2Wf6AEYFuADZsL_J-7">
          <mxGeometry relative="1" as="geometry">
            <mxPoint x="1430" y="300" as="sourcePoint" />
            <mxPoint x="1590" y="300" as="targetPoint" />
          </mxGeometry>
        </mxCell>
        <mxCell id="AAbZ2Wf6AEYFuADZsL_J-19" value="" style="endArrow=none;html=1;rounded=0;exitX=0.5;exitY=1;exitDx=0;exitDy=0;entryX=0.5;entryY=0;entryDx=0;entryDy=0;" edge="1" parent="1" source="AAbZ2Wf6AEYFuADZsL_J-15" target="AAbZ2Wf6AEYFuADZsL_J-6">
          <mxGeometry relative="1" as="geometry">
            <mxPoint x="1430" y="300" as="sourcePoint" />
            <mxPoint x="1590" y="300" as="targetPoint" />
          </mxGeometry>
        </mxCell>
        <mxCell id="AAbZ2Wf6AEYFuADZsL_J-20" value="officer" style="whiteSpace=wrap;html=1;align=center;" vertex="1" parent="1">
          <mxGeometry x="910" y="250" width="100" height="40" as="geometry" />
        </mxCell>
        <mxCell id="AAbZ2Wf6AEYFuADZsL_J-21" value="&lt;u&gt;officer_id&lt;/u&gt;" style="ellipse;whiteSpace=wrap;html=1;align=center;" vertex="1" parent="1">
          <mxGeometry x="890" y="200" width="100" height="40" as="geometry" />
        </mxCell>
        <mxCell id="AAbZ2Wf6AEYFuADZsL_J-22" value="officer_permission" style="ellipse;whiteSpace=wrap;html=1;align=center;" vertex="1" parent="1">
          <mxGeometry x="950" y="340" width="100" height="40" as="geometry" />
        </mxCell>
        <mxCell id="AAbZ2Wf6AEYFuADZsL_J-23" value="last_name" style="ellipse;whiteSpace=wrap;html=1;align=center;" vertex="1" parent="1">
          <mxGeometry x="1000" y="200" width="100" height="40" as="geometry" />
        </mxCell>
        <mxCell id="AAbZ2Wf6AEYFuADZsL_J-24" value="first_name" style="ellipse;whiteSpace=wrap;html=1;align=center;" vertex="1" parent="1">
          <mxGeometry x="890" y="300" width="100" height="40" as="geometry" />
        </mxCell>
        <mxCell id="AAbZ2Wf6AEYFuADZsL_J-25" value="makes" style="shape=rhombus;double=1;perimeter=rhombusPerimeter;whiteSpace=wrap;html=1;align=center;" vertex="1" parent="1">
          <mxGeometry x="1160" y="240" width="120" height="60" as="geometry" />
        </mxCell>
        <mxCell id="AAbZ2Wf6AEYFuADZsL_J-26" value="" style="endArrow=none;html=1;rounded=0;exitX=0.5;exitY=1;exitDx=0;exitDy=0;entryX=0.5;entryY=0;entryDx=0;entryDy=0;" edge="1" parent="1" source="AAbZ2Wf6AEYFuADZsL_J-21" target="AAbZ2Wf6AEYFuADZsL_J-20">
          <mxGeometry relative="1" as="geometry">
            <mxPoint x="930" y="340" as="sourcePoint" />
            <mxPoint x="1090" y="340" as="targetPoint" />
          </mxGeometry>
        </mxCell>
        <mxCell id="AAbZ2Wf6AEYFuADZsL_J-27" value="" style="endArrow=none;html=1;rounded=0;entryX=0;entryY=0.5;entryDx=0;entryDy=0;exitX=0.5;exitY=0;exitDx=0;exitDy=0;" edge="1" parent="1" source="AAbZ2Wf6AEYFuADZsL_J-20" target="AAbZ2Wf6AEYFuADZsL_J-23">
          <mxGeometry relative="1" as="geometry">
            <mxPoint x="930" y="340" as="sourcePoint" />
            <mxPoint x="1090" y="340" as="targetPoint" />
          </mxGeometry>
        </mxCell>
        <mxCell id="AAbZ2Wf6AEYFuADZsL_J-28" value="" style="endArrow=none;html=1;rounded=0;entryX=0.5;entryY=1;entryDx=0;entryDy=0;exitX=0.5;exitY=0;exitDx=0;exitDy=0;" edge="1" parent="1" source="AAbZ2Wf6AEYFuADZsL_J-24" target="AAbZ2Wf6AEYFuADZsL_J-20">
          <mxGeometry relative="1" as="geometry">
            <mxPoint x="930" y="340" as="sourcePoint" />
            <mxPoint x="1090" y="340" as="targetPoint" />
          </mxGeometry>
        </mxCell>
        <mxCell id="AAbZ2Wf6AEYFuADZsL_J-29" value="" style="endArrow=none;html=1;rounded=0;entryX=0.5;entryY=1;entryDx=0;entryDy=0;exitX=0.5;exitY=0;exitDx=0;exitDy=0;" edge="1" parent="1" source="AAbZ2Wf6AEYFuADZsL_J-22" target="AAbZ2Wf6AEYFuADZsL_J-20">
          <mxGeometry relative="1" as="geometry">
            <mxPoint x="930" y="340" as="sourcePoint" />
            <mxPoint x="1090" y="340" as="targetPoint" />
          </mxGeometry>
        </mxCell>
        <mxCell id="AAbZ2Wf6AEYFuADZsL_J-30" value="" style="endArrow=none;html=1;rounded=0;dashed=1;dashPattern=1 2;exitX=1;exitY=0.5;exitDx=0;exitDy=0;entryX=0;entryY=0.5;entryDx=0;entryDy=0;" edge="1" parent="1" source="AAbZ2Wf6AEYFuADZsL_J-20" target="AAbZ2Wf6AEYFuADZsL_J-25">
          <mxGeometry relative="1" as="geometry">
            <mxPoint x="1100" y="270" as="sourcePoint" />
            <mxPoint x="1260" y="270" as="targetPoint" />
          </mxGeometry>
        </mxCell>
        <mxCell id="AAbZ2Wf6AEYFuADZsL_J-31" value="N" style="resizable=0;html=1;whiteSpace=wrap;align=right;verticalAlign=bottom;" connectable="0" vertex="1" parent="AAbZ2Wf6AEYFuADZsL_J-30">
          <mxGeometry x="1" relative="1" as="geometry">
            <mxPoint x="-70" as="offset" />
          </mxGeometry>
        </mxCell>
        <mxCell id="AAbZ2Wf6AEYFuADZsL_J-32" value="" style="endArrow=none;html=1;rounded=0;entryX=0;entryY=0.5;entryDx=0;entryDy=0;exitX=1;exitY=0.5;exitDx=0;exitDy=0;" edge="1" parent="1" source="AAbZ2Wf6AEYFuADZsL_J-25" target="AAbZ2Wf6AEYFuADZsL_J-15">
          <mxGeometry relative="1" as="geometry">
            <mxPoint x="1250" y="319.5" as="sourcePoint" />
            <mxPoint x="1410" y="319.5" as="targetPoint" />
          </mxGeometry>
        </mxCell>
        <mxCell id="AAbZ2Wf6AEYFuADZsL_J-33" value="1" style="resizable=0;html=1;whiteSpace=wrap;align=right;verticalAlign=bottom;" connectable="0" vertex="1" parent="AAbZ2Wf6AEYFuADZsL_J-32">
          <mxGeometry x="1" relative="1" as="geometry">
            <mxPoint x="-80" as="offset" />
          </mxGeometry>
        </mxCell>
      </root>
    </mxGraphModel>
  </diagram>
</mxfile>
